# xmcd CD database file
#
# Track frame offsets:
#	150
#	12982
#	21881
#	34881
#	49277
#	63239
#	77294
#	89724
#	103113
#	117356
#	131576
#	144061
#	155255
#	164982
#	177846
#	187503
#	199046
#	213090
#	226365
#	239084
#
# Disc length: 3401 seconds
#
# Revision: 3
# Processed by: cddbd v1.5.2PL0 Copyright (c) Steve Scherf et al.
# Submitted via: CDex 1.51
#
DISCID=0b0d4714
DTITLE=Various Artist - The Best Of British Female Vocalists [CD1]
DYEAR=1900
DGENRE=Vocal
TTITLE0=Jill Day - Sincerely
TTITLE1=Eve Boswell - The Gypsy In My Soul
TTITLE2=Dorothy Squires - It's The Talk Of The Town
TTITLE3=Lita Roza - Where Do I Go From Here?
TTITLE4=Alma Cogan - You Belong To Me
TTITLE5=Anne Shelton - If I Gave My Heart To You
TTITLE6=Billie Anthony - Things Go Wrong
TTITLE7=Alma Warren - Now and Ever
TTITLE8=Shirley Bassey - Climb Ev'ery Mountain
TTITLE9=Cilla Black - You've Lost That Lovin' Feeling
TTITLE10=Kathye Kay - All My Life
TTITLE11=Helen Shapiro - Walkin' Back To Happiness
TTITLE12=Sheil Buxton - Charm
TTITLE13=Betty Miller - Georgia's Got A Moon
TTITLE14=Ruby Murray - Heartbeat
TTITLE15=Rose Brennan - Wake The Town And Tell The People
TTITLE16=Rosemary Squires - Please Be So Kind
TTITLE17=Alma Warren - Wait Till April
TTITLE18=Jean campbell - Idle Gossip
TTITLE19=Shirley Bassey - Something
EXTD=
EXTT0=
EXTT1=
EXTT2=
EXTT3=
EXTT4=
EXTT5=
EXTT6=
EXTT7=
EXTT8=
EXTT9=
EXTT10=
EXTT11=
EXTT12=
EXTT13=
EXTT14=
EXTT15=
EXTT16=
EXTT17=
EXTT18=
EXTT19=
PLAYORDER=
